<?xml version="1.0" encoding="utf-8"?>
<!-- Generator: Adobe Illustrator 25.1.0, SVG Export Plug-In . SVG Version: 6.00 Build 0)  -->
<svg version="1.1" id="Layer_1" xmlns="http://www.w3.org/2000/svg" xmlns:xlink="http://www.w3.org/1999/xlink" x="0px" y="0px"
	 viewBox="0 0 2780.4 425.6" style="enable-background:new 0 0 2780.4 425.6;" xml:space="preserve">
<style type="text/css">
	.st0{fill:url(#SVGID_1_);stroke:#221F1F;stroke-miterlimit:10;}
	.st1{fill:#221F1F;stroke:#221F1F;stroke-miterlimit:10;}
	.st2{fill:#221F1F;}
	.st3{font-family:'orangejuice';}
	.st4{font-size:36.2929px;}
	.st5{letter-spacing:-1.2;}
	.st6{letter-spacing:-3.6;}
	.st7{fill:#FFFFFF;}
	.st8{font-family:'Algerian';}
	.st9{font-size:304.96px;}
</style>
<linearGradient id="SVGID_1_" gradientUnits="userSpaceOnUse" x1="29.1521" y1="192.0327" x2="258.8053" y2="192.0327" gradientTransform="matrix(1 0 0 -1 -8.5 419.6102)">
	<stop  offset="0" style="stop-color:#F0672E"/>
	<stop  offset="0" style="stop-color:#30A4D9"/>
	<stop  offset="0.16" style="stop-color:#48A2D0"/>
	<stop  offset="0.8" style="stop-color:#F16623"/>
</linearGradient>
<path class="st0" d="M242,342c-18.9,49.3-75.8,73.4-122.9,65.7C84.4,402,34.8,375.8,23.2,324c-8.7-38.9,7.3-77.2,10.7-85.3
	c11.7-28,32.2-51.1,33.3-52.2c7.9-8.9,18.3-18.5,30.9-37.1c3-4.6,6.6-10.2,11.1-18.1c25-44.5,36.3-87.1,40.7-85.3
	c1.5,0.6,0.4,6.2,2.4,18.2c1.5,8.6,4,17,7.5,24.9c8.5,22.3-17.4,93.8-35.1,119.3c-16.1,23.1-33.1,47.9-27,65.7
	c2.3,6.9,8.1,12.4,9.4,13.6c6,5.6,15,10.3,16.9,7.5c1.9-2.8-8.4-11.6-10.1-26.4c-1.8-17.6,10.3-33.5,17.6-43.1
	c10.9-14.3,15.4-12.4,28.2-30.2c7.4-10.3,10.6-17.5,12.2-25.3c2.2-11.5,0-19.7,1-20s15.8,26.8,10.5,53.4s-26.7,28.7-31.9,58.4
	c-2.2,12.7-1.7,32.7,8.2,41.5c7.8,7,18.3,4.1,27.6,1.5c6-1.6,32.9-9.1,41.4-33.9c7.4-21.8-2.9-46.6,0-47.6c1-0.4,2.8,2.2,6.9,12.1
	c7.1,17,11.9,28.8,13.8,46C251.7,302.1,249.1,322.8,242,342z"/>
<ellipse class="st1" cx="157.6" cy="19" rx="27.3" ry="2.6"/>
<ellipse class="st1" cx="158.2" cy="27.9" rx="33.8" ry="3.3"/>
<path class="st1" d="M192,38.5c0,0.6-1.7,1.1-3.9,1.6c-9.8,2.2-20,2.8-30,1.8c-23.5-3.1-33.8-2.1-33.8-3.4s15.2-3.3,33.8-3.3
	S192,36.7,192,38.5z"/>
<path class="st1" d="M180,68.2c0.5,0,1,18.5,5.5,43.7c2.3,12.9,6.8,36.8,18.3,62.8c7.9,18.1,10.2,16.7,20.6,37.1
	c13.6,26.5,22.5,44.3,25.1,69.8c0.9,9.2,3.3,36.1-8.8,63.6c-3.2,7.1-7.1,13.9-11.8,20.1c-24.6,32.8-61.1,40-67.5,41.3
	c-48.9,9.6-120.3-16.4-137.1-77.7c-11.7-42.1,7-84.8,14.2-101.5c19.4-44.6,39.1-40.5,70.7-96.1c23.8-41.9,36.5-84.6,38.5-83.5
	c2,1.1-4,18.2-4.4,19.9c-2.5,8.2-9.2,29-30.2,64.7c-12.1,20.6-18,31.1-27,41.2s-14.2,12.7-23.4,24.1c-8.5,11.1-15.7,23.1-21.5,35.9
	c-3.6,8-23.6,53.6-13.5,94.8c13.6,56.2,82.9,83.6,134.2,72.7c12.3-2.6,44.4-9.3,65.4-43.6c17-27.9,21-64,14.4-91.4
	c-3.8-15.8-11.9-31.9-23.5-54.9c-11.6-23-13.4-22-19.7-37c-10.6-25.6-13.8-48.5-15.9-63.7C179.6,87.5,179.6,68.3,180,68.2z"/>
<text transform="matrix(0.8297 -7.981736e-02 6.753182e-02 0.9977 62.6468 350.4795)" class="st2 st3 st4">F</text>
<text transform="matrix(0.8297 -7.981736e-02 6.753182e-02 0.9977 76.284 349.1675)" class="st2 st3 st4">I</text>
<text transform="matrix(0.8297 -7.981736e-02 6.753182e-02 0.9977 84.185 348.4074)" class="st2 st3 st4">L</text>
<text transform="matrix(0.8297 -7.981736e-02 6.753182e-02 0.9977 98.2383 347.0555)" class="st2 st3 st4">I</text>
<text transform="matrix(0.8297 -7.981736e-02 6.753182e-02 0.9977 106.1384 346.2955)" class="st2 st3 st4">P </text>
<text transform="matrix(0.8297 -7.981736e-02 6.753182e-02 0.9977 125.3475 344.4475)" class="st2 st3 st4">I</text>
<text transform="matrix(0.8297 -7.981736e-02 6.753182e-02 0.9977 133.1645 343.6955)" class="st2 st3 st4">N</text>
<text transform="matrix(0.8297 -7.981736e-02 6.753182e-02 0.9977 149.7126 342.1035)" class="st2 st3 st4 st5">S</text>
<text transform="matrix(0.8297 -7.981736e-02 6.753182e-02 0.9977 164.7642 340.6555)" class="st2 st3 st4 st6">T</text>
<text transform="matrix(0.8297 -7.981736e-02 6.753182e-02 0.9977 180.3981 339.1515)" class="st2 st3 st4">A</text>
<text transform="matrix(0.8297 -7.981736e-02 6.753182e-02 0.9977 202.0189 337.0715)" class="st2 st3 st4">L</text>
<text transform="matrix(0.8297 -7.981736e-02 6.753182e-02 0.9977 216.5714 335.6715)" class="st2 st3 st4">L</text>
<text transform="matrix(1.2533 0 0 1 269.4505 349.1675)" class="st7 st8 st9">FILIP INSTALL</text>
</svg>
