<svg id="Layer_1" data-name="Layer 1" xmlns="http://www.w3.org/2000/svg" xmlns:xlink="http://www.w3.org/1999/xlink" viewBox="0 0 367.5 521.11"><defs><style>.cls-1,.cls-2,.cls-3,.cls-4{stroke:#231f20;stroke-miterlimit:10;}.cls-1{fill:url(#linear-gradient);}.cls-2,.cls-5{fill:#231f20;}.cls-3{fill:url(#linear-gradient-2);}.cls-4{fill:url(#linear-gradient-3);}.cls-5{font-size:48px;font-family:orangejuice, orange juice;}.cls-6{letter-spacing:-0.01em;}.cls-7{letter-spacing:0.03em;}.cls-8{letter-spacing:-0.03em;}.cls-9{letter-spacing:0.03em;}.cls-10{letter-spacing:0.03em;}.cls-11{letter-spacing:0.01em;}.cls-12{letter-spacing:-0.04em;}.cls-13{letter-spacing:-0.11em;}.cls-14{letter-spacing:-0.01em;}.cls-15{letter-spacing:-0.01em;}</style><linearGradient id="linear-gradient" x1="122.63" y1="500.36" x2="488.95" y2="500.36" gradientUnits="userSpaceOnUse"><stop offset="0" stop-color="#f1662d"/><stop offset="0" stop-color="#2fa5da"/><stop offset="0.16" stop-color="#47a3d1"/><stop offset="0.8" stop-color="#f26522"/></linearGradient><linearGradient id="linear-gradient-2" x1="653.7" y1="659.47" x2="653.7" y2="659.47" xlink:href="#linear-gradient"/><linearGradient id="linear-gradient-3" x1="733.36" y1="628.83" x2="733.36" y2="628.83" xlink:href="#linear-gradient"/></defs><path class="cls-1" d="M475.74,652c-30.14,65.31-120.86,97.22-196,87-55.37-7.53-134.47-42.3-153-110.94-13.92-51.5,11.65-102.14,17.08-112.9,18.71-37.09,51.42-67.7,53-69.18,12.68-11.72,29.19-24.4,49.34-49.12,4.91-6,10.61-13.47,17.73-23.94,40.07-59,57.85-115.31,65-113,2.52.81.61,8.26,3.84,24.08,3.42,16.77,9.47,27.52,12,33,13.62,29.52-27.68,124.26-56,158-25.68,30.59-52.7,63.48-43,87,3.8,9.22,13,16.45,15,18,9.51,7.46,23.9,13.63,27,10,3.61-4.22-13.51-15.35-16-35-2.95-23.28,16.42-44.38,28-57,17.41-19,24.6-16.45,45-40,11.86-13.69,16.95-23.23,19.4-33.51,3.66-15.3,0-26.15,1.6-26.49,2.93-.64,25.21,35.4,16.83,70.73-8.75,36.85-42.55,37.9-50.83,77.27-3.55,16.9-2.92,43.27,13,55,12.52,9.23,29.13,5.42,44,2,9.57-2.2,52.5-12.06,66-45,11.81-28.83-4.55-61.63,0-63,1.53-.46,4.51,2.94,11,16,11.22,22.59,19,38.22,22,61A149.61,149.61,0,0,1,475.74,652Z" transform="translate(-122.05 -220.26)"/><ellipse class="cls-2" cx="219.08" cy="3.93" rx="43.5" ry="3.43"/><ellipse class="cls-2" cx="219.95" cy="15.68" rx="54" ry="4.38"/><path class="cls-2" d="M396,250.09c0,.75-2.73,1.39-6.24,2A180.51,180.51,0,0,1,342,254.47c-37.51-4.06-54-2.76-54-4.38,0-2.42,24.18-4.38,54-4.38S396,247.67,396,250.09Z" transform="translate(-122.05 -220.26)"/><path class="cls-2" d="M376.88,289.37c.77-.07,1.46,24.47,8.73,57.9,3.72,17.05,10.82,48.68,29.11,83.18,12.66,23.87,16.35,22.1,32.94,49,21.68,35.18,36,58.73,40.08,92.53,1.47,12.1,5.31,47.78-14.06,84.21a135.29,135.29,0,0,1-18.8,26.55c-39.19,43.5-97.37,53-107.63,54.7-78.07,12.77-191.78-21.72-218.74-102.84C110,578.8,139.61,522.3,151.23,500.15c31-59,62.27-53.59,112.67-127.23,38-55.47,58.25-112,61.48-110.58,2.08.91-6.33,24.11-7.17,26.4-3.91,10.79-14.64,38.32-48.09,85.63-19.29,27.28-28.63,41.13-43.06,54.54-15.22,14.16-22.55,16.92-37.19,32,0,0-20,20.55-34.38,47.49C149.83,519,118,579.44,134,633.94c21.82,74.47,132.12,110.71,214.13,96.34,19.55-3.43,70.71-12.4,104.17-57.79,27.22-36.94,33.4-84.72,23-121-6-21-19-42.3-37.53-72.77-18.87-31-21.41-29.06-31.4-49-16.92-33.79-22.05-64.17-25.28-84.25C376.1,314.86,376.09,289.45,376.88,289.37Z" transform="translate(-122.05 -220.26)"/><path class="cls-3" d="M653.7,659.47" transform="translate(-122.05 -220.26)"/><path class="cls-4" d="M733.36,628.83" transform="translate(-122.05 -220.26)"/><text class="cls-5" transform="translate(67.56 442.87) rotate(-4.85)"><tspan class="cls-6">F</tspan><tspan class="cls-7" x="21.68" y="0">I</tspan><tspan class="cls-8" x="34.1" y="0">L</tspan><tspan class="cls-9" x="56.4" y="0">I</tspan><tspan x="68.87" y="0">P </tspan><tspan class="cls-10" x="99.59" y="0">I</tspan><tspan class="cls-11" x="111.94" y="0">N</tspan><tspan class="cls-12" x="138.19" y="0">S</tspan><tspan class="cls-13" x="162.1" y="0">T</tspan><tspan class="cls-14" x="186.71" y="0">A</tspan><tspan class="cls-15" x="221.04" y="0">L</tspan><tspan x="244.11" y="0">L</tspan></text></svg>